<?xml version="1.0" encoding="UTF-8"?>
<svg id="Layer_2" data-name="Layer 2" xmlns="http://www.w3.org/2000/svg" viewBox="0 0 4017.33 321.01">
  <defs>
    <style>
      .cls-1 {
        fill: #6f7277;
      }

      .cls-2 {
        fill: none;
        stroke: #666a70;
        stroke-miterlimit: 10;
        stroke-width: 8px;
      }

      .cls-3 {
        fill: #da291c;
      }

      .cls-4 {
        fill: #666a70;
      }
    </style>
  </defs>
  <g id="Layer_1-2" data-name="Layer 1">
    <g>
      <g>
        <path class="cls-3" d="M693.93,122.25h-24.7v-39.18h-185.4v39.18h-24.34V30.53c0-20.16,9.81-30.24,29.42-30.24h175.51c19.68,0,29.51,10.19,29.51,30.53v91.43ZM483.82,58.64h185.4v-24.26c0-6.45-3.28-9.69-9.8-9.69h-165.82c-6.52,0-9.78,3.33-9.78,9.99v23.96Z"/>
        <rect class="cls-3" x="713.86" y=".3" width="24.92" height="121.96"/>
        <path class="cls-3" d="M993.55,122.25h-29.74l-29.55-39.11h-150.92v39.11h-24.73l.31-121.96h205.31c19.35,0,29.02,9.61,29.02,28.81,0,0,.5,5.37,0,20.26-.5,14.97-17.67,31.11-29.45,33.72-11.6,2.55.03-.01,0,0l29.75,39.17ZM958.18,24.69h-174.84v34.24h171.56c9.09,0,14.01-8.85,14.01-14.88v-9.52c.08-6.58-3.51-9.84-10.73-9.84"/>
        <path class="cls-3" d="M1619.46,122.27h-24.7v-39.21h-185.4v39.21h-24.34V30.54c0-20.16,9.81-30.24,29.43-30.24h175.5c19.68,0,29.51,10.19,29.51,30.52v91.46ZM1409.36,58.64h185.4v-24.24c0-6.48-3.28-9.7-9.81-9.7h-165.82c-6.5,0-9.76,3.33-9.76,9.98v23.97Z"/>
        <path class="cls-3" d="M1842.85,122.3l-204.12-.12v-24.58h200.8c6.15,0,9.23-3.17,9.29-9.52v-14.66h-180.59c-19.68,0-29.49-9.92-29.49-29.71V.28h24.5v39.46c0,6.35,3.37,9.57,10.07,9.57h175.51V.12h24.54v92.14c0,20.02-10.18,30.04-30.5,30.04"/>
        <path class="cls-3" d="M2127.82,92.35c0,19.94-9.96,29.91-29.89,29.91h-204.73l.29-24.17h200.14c6.42,0,9.72-2.96,9.86-8.96v-5.94c.14-6.44-3.22-9.63-10.06-9.63h-170.66c-19.71,0-29.57-9.12-29.57-27.36v-16.14c0-19.7,9.64-29.57,29.01-29.57l205.62-.21v24.37h-200.43c-6.45,0-9.67,3.27-9.67,9.73v4.88c0,6.61,3.14,9.93,9.48,9.93h170.74c19.93,0,29.89,9.58,29.89,28.82v14.33Z"/>
        <path class="cls-3" d="M1202.18,97.8h126.26c8.01,0,12.02-3.17,12.02-9.46V.31h24.34v92.11c0,20-9.52,29.98-28.53,29.98h-293.38c-20,0-30-9.98-30-29.98V.29h25.22v87.75c0,6.51,3.16,9.76,9.46,9.76h128.32l-.09-97.45h26.38v97.45Z"/>
        <path class="cls-4" d="M693.93,321h-24.72v-39.29h-185.39v39.29h-24.34v-91.81c0-20.2,9.81-30.29,29.42-30.29h175.51c19.68,0,29.51,10.19,29.51,30.58v91.52ZM483.82,257.32h185.39v-24.29c0-6.48-3.27-9.69-9.76-9.69h-165.84c-6.52,0-9.78,3.31-9.78,9.98v24Z"/>
        <polygon class="cls-4" points="937.46 198.77 834.76 297.28 731.83 198.97 698.01 198.97 818.09 321.01 851.43 321.01 971.71 198.77 937.46 198.77"/>
        <rect class="cls-4" x="983.44" y="198.77" width="24.93" height="122.09"/>
        <path class="cls-1" d="M1266.55,320.9h-24.72v-39.29h-185.39v39.29h-24.34v-91.87c0-20.19,9.8-30.29,29.4-30.29h175.53c19.68,0,29.51,10.22,29.51,30.58v91.58ZM1056.45,257.18h185.39v-24.32c0-6.45-3.28-9.67-9.8-9.67h-165.82c-6.5,0-9.76,3.33-9.76,9.99v24Z"/>
        <polygon class="cls-4" points="1289.32 198.91 1289.32 223.64 1411.67 223.64 1411.67 320.79 1440.98 320.79 1440.98 223.26 1562.96 223.26 1562.96 198.91 1289.32 198.91"/>
        <rect class="cls-4" x="1586.42" y="198.91" width="24.92" height="121.9"/>
        <path class="cls-4" d="M1664.1,320.94c-19.55,0-29.3-9.81-29.3-29.4v-63.31c0-19.56,9.69-29.33,29.01-29.33h175.83c19.84,0,29.77,10.01,29.77,30v63.23c0,19-9.6,28.52-28.82,28.52l-176.49.29ZM1844.9,286.87v-53.3c0-6.82-3.27-10.22-9.76-10.22h-165.86c-6.53,0-9.78,3.16-9.78,9.54v53.71c0,6.62,3.25,9.93,9.78,9.93h166.04c6.38,0,9.58-3.22,9.58-9.66"/>
        <polygon class="cls-4" points="2102.88 198.91 2102.96 292.05 1917.41 198.91 1892.86 198.91 1893.16 320.78 1917.61 320.78 1917.61 227.32 2102.78 320.87 2127.53 320.87 2127.53 198.91 2102.88 198.91"/>
        <polygon class="cls-3" points="0 320.62 362.3 320.67 362.3 262.35 37.28 262.33 0 320.62"/>
        <polygon class="cls-3" points="362.3 233.21 362.3 174.91 93.64 174.89 56.18 233.19 362.3 233.21"/>
        <polygon class="cls-3" points="362.3 145.76 362.3 87.46 149.65 87.43 112.36 145.73 362.3 145.76"/>
        <polygon class="cls-3" points="205.82 0 168.54 58.3 362.3 58.32 362.3 .01 205.82 0"/>
      </g>
      <line class="cls-2" x1="2350.53" y1="25.96" x2="2350.53" y2="295.04"/>
      <g>
        <path class="cls-4" d="M2708.27,123.93c0,21.04-6.57,37.13-19.72,48.27-13.15,11.14-31.84,16.71-56.09,16.71h-17.78v69.52h-41.45V62.97h62.44c23.71,0,41.73,5.11,54.08,15.31,12.35,10.21,18.51,25.43,18.51,45.66ZM2614.68,154.95h13.64c12.75,0,22.29-2.52,28.61-7.55,6.33-5.04,9.5-12.37,9.5-22s-2.66-16.89-7.96-21.53c-5.31-4.63-13.62-6.95-24.94-6.95h-18.85v58.02Z"/>
        <path class="cls-4" d="M2922.6,160.44c0,32.36-8.02,57.22-24.07,74.6-16.04,17.38-39.04,26.07-68.99,26.07s-52.94-8.69-68.99-26.07c-16.04-17.38-24.06-42.34-24.06-74.87s8.04-57.38,24.13-74.54c16.09-17.16,39.15-25.74,69.19-25.74s53.01,8.65,68.92,25.94c15.91,17.3,23.87,42.16,23.87,74.6ZM2779.93,160.44c0,21.84,4.15,38.28,12.44,49.34,8.29,11.05,20.68,16.58,37.16,16.58,33.07,0,49.61-21.97,49.61-65.92s-16.44-66.05-49.33-66.05c-16.49,0-28.93,5.55-37.3,16.65-8.38,11.1-12.57,27.57-12.57,49.4Z"/>
        <path class="cls-4" d="M3004.55,183.43v75.01h-41.45V62.97h56.96c26.56,0,46.21,4.84,58.96,14.51,12.75,9.67,19.12,24.35,19.12,44.06,0,11.5-3.16,21.73-9.49,30.68-6.33,8.96-15.29,15.98-26.87,21.06,29.42,43.94,48.58,72.33,57.49,85.17h-45.99l-46.67-75.01h-22.06ZM3004.55,149.74h13.37c13.1,0,22.77-2.19,29.01-6.55,6.24-4.37,9.36-11.23,9.36-20.59s-3.19-15.86-9.56-19.79c-6.37-3.92-16.24-5.88-29.61-5.88h-12.57v52.81Z"/>
        <path class="cls-4" d="M3219.28,258.44h-41.45V97.46h-53.08v-34.5h147.61v34.5h-53.08v160.98Z"/>
        <path class="cls-4" d="M3461.54,62.97v126.48c0,14.44-3.23,27.1-9.69,37.97-6.46,10.87-15.8,19.21-28.01,25-12.21,5.8-26.65,8.69-43.32,8.69-25.13,0-44.66-6.44-58.56-19.32-13.91-12.88-20.86-30.51-20.86-52.88V62.97h41.32v119.66c0,15.06,3.03,26.12,9.09,33.16,6.06,7.04,16.09,10.56,30.08,10.56s23.38-3.54,29.48-10.63c6.11-7.09,9.16-18.2,9.16-33.36V62.97h41.31Z"/>
        <path class="cls-4" d="M3583.61,148.67h77.55v101.34c-12.57,4.1-24.4,6.98-35.5,8.63-11.1,1.65-22.44,2.47-34.03,2.47-29.5,0-52.03-8.67-67.58-26.01-15.56-17.34-23.33-42.23-23.33-74.67s9.02-56.15,27.07-73.8c18.05-17.65,43.07-26.47,75.07-26.47,20.05,0,39.4,4.01,58.03,12.03l-13.77,33.16c-14.26-7.13-29.1-10.7-44.52-10.7-17.92,0-32.27,6.02-43.05,18.05-10.79,12.03-16.18,28.21-16.18,48.54s4.35,37.42,13.04,48.6c8.69,11.19,21.33,16.78,37.9,16.78,8.65,0,17.43-.89,26.34-2.67v-40.78h-37.04v-34.5Z"/>
        <path class="cls-4" d="M3827.34,258.44l-14.17-46.53h-71.26l-14.17,46.53h-44.66l68.99-196.27h50.67l69.26,196.27h-44.66ZM3803.28,177.15c-13.1-42.16-20.48-66-22.13-71.53-1.65-5.52-2.83-9.89-3.54-13.1-2.94,11.41-11.36,39.62-25.27,84.63h50.94Z"/>
        <path class="cls-4" d="M3896.6,258.44V62.97h41.45v161.24h79.29v34.23h-120.73Z"/>
      </g>
    </g>
  </g>
</svg>