<?xml version="1.0" encoding="UTF-8"?>
<svg id="Layer_2" xmlns="http://www.w3.org/2000/svg" version="1.1" viewBox="0 0 3911.6 321">
  <!-- Generator: Adobe Illustrator 29.4.0, SVG Export Plug-In . SVG Version: 2.1.0 Build 152)  -->
  <defs>
    <style>
      .st0 {
        fill: #63686f;
      }

      .st1 {
        fill: #ed3024;
      }
    </style>
  </defs>
  <g>
    <path class="st0" d="M2513.3,312.4l-7.3-18.7h-23.6l-7.2,18.7h-6.9l23.3-59.1h5.8l23.1,59.1h-7.1ZM2503.9,287.5l-6.8-18.2c-.9-2.3-1.8-5.1-2.7-8.5-.6,2.6-1.4,5.4-2.5,8.5l-6.9,18.2h19Z"/>
    <path class="st0" d="M2599.9,253.5h7.4l-21.2,58.8h-6.8l-21.1-58.8h7.2l13.5,38.1c1.6,4.4,2.8,8.6,3.7,12.8,1-4.3,2.2-8.7,3.8-13l13.4-37.8Z"/>
    <path class="st0" d="M2653.1,312.4v-58.8h6.8v58.8h-6.8Z"/>
    <path class="st0" d="M2750.8,312.4l-7.3-18.7h-23.6l-7.2,18.7h-6.9l23.3-59.1h5.8l23.1,59.1h-7.1ZM2741.3,287.5l-6.8-18.2c-.9-2.3-1.8-5.1-2.7-8.5-.6,2.6-1.4,5.4-2.5,8.5l-6.9,18.2h19Z"/>
    <path class="st0" d="M2821.8,312.4h-6.8v-52.8h-18.6v-6.1h44.1v6.1h-18.6v52.8Z"/>
    <path class="st0" d="M2887.1,312.4v-58.8h6.8v58.8h-6.8Z"/>
    <path class="st0" d="M2998.9,282.8c0,9.4-2.4,16.8-7.1,22.2-4.8,5.4-11.4,8.1-19.9,8.1s-15.4-2.6-20.1-7.9c-4.7-5.3-7.1-12.8-7.1-22.4s2.4-17,7.1-22.3c4.7-5.3,11.4-7.9,20.1-7.9s15.1,2.7,19.8,8.1c4.8,5.4,7.1,12.8,7.1,22.2ZM2952,282.8c0,8,1.7,14,5.1,18.1,3.4,4.1,8.3,6.2,14.8,6.2s11.4-2,14.8-6.2c3.3-4.1,5-10.2,5-18.1s-1.7-13.9-5-18c-3.3-4.1-8.2-6.1-14.7-6.1s-11.5,2.1-14.9,6.2c-3.4,4.1-5.1,10.1-5.1,18Z"/>
    <path class="st0" d="M3095.7,312.4h-7.8l-32.2-49.4h-.3c.4,5.8.6,11.1.6,15.9v33.4h-6.3v-58.8h7.7l32.1,49.2h.3c0-.7-.2-3.1-.4-7-.2-3.9-.3-6.7-.2-8.4v-33.8h6.4v58.8Z"/>
    <path class="st0" d="M3245.8,312.4l-7.3-18.7h-23.6l-7.2,18.7h-6.9l23.3-59.1h5.8l23.1,59.1h-7.1ZM3236.4,287.5l-6.8-18.2c-.9-2.3-1.8-5.1-2.7-8.5-.6,2.6-1.4,5.4-2.5,8.5l-6.9,18.2h19Z"/>
    <path class="st0" d="M3324,258.8c-6.5,0-11.6,2.2-15.3,6.5-3.7,4.3-5.6,10.2-5.6,17.7s1.8,13.7,5.4,17.9c3.6,4.2,8.8,6.3,15.4,6.3s8.8-.7,14-2.2v6c-4.1,1.5-9.1,2.3-15.1,2.3-8.7,0-15.4-2.6-20.1-7.9-4.7-5.3-7.1-12.7-7.1-22.4s1.1-11.4,3.4-15.9c2.3-4.6,5.5-8.1,9.8-10.5,4.3-2.5,9.3-3.7,15.1-3.7s11.6,1.1,16.2,3.4l-2.9,5.9c-4.5-2.1-8.9-3.1-13.4-3.1Z"/>
    <path class="st0" d="M3425.5,312.4l-7.3-18.7h-23.6l-7.2,18.7h-6.9l23.3-59.1h5.8l23.1,59.1h-7.1ZM3416,287.5l-6.8-18.2c-.9-2.3-1.8-5.1-2.7-8.5-.6,2.6-1.4,5.4-2.5,8.5l-6.9,18.2h19Z"/>
    <path class="st0" d="M3525.4,282.4c0,9.7-2.6,17.1-7.9,22.3-5.3,5.1-12.9,7.7-22.8,7.7h-16.3v-58.8h18c9.1,0,16.3,2.5,21.3,7.6,5.1,5.1,7.6,12.2,7.6,21.3ZM3518.2,282.6c0-7.7-1.9-13.5-5.8-17.3s-9.6-5.8-17.2-5.8h-9.9v47h8.3c8.2,0,14.3-2,18.4-6,4.1-4,6.2-10,6.2-17.8Z"/>
    <path class="st0" d="M3609.1,312.4h-32.8v-58.8h32.8v6.1h-26v19h24.4v6h-24.4v21.7h26v6.1Z"/>
    <path class="st0" d="M3685.9,312.4l-20-52.2h-.3c.4,4.1.6,9,.6,14.7v37.4h-6.3v-58.8h10.3l18.6,48.5h.3l18.8-48.5h10.2v58.8h-6.8v-37.9c0-4.3.2-9.1.6-14.2h-.3l-20.1,52.1h-5.5Z"/>
    <path class="st0" d="M3787,282.9l15.7-29.4h7.4l-19.6,36v22.8h-6.9v-22.5l-19.6-36.3h7.5l15.6,29.4Z"/>
  </g>
  <g>
    <g>
      <path class="st0" d="M2730.6,216.7h-222.8c-32,0-57.8-25.8-57.8-57.8V61.8c0-32,25.8-57.8,57.8-57.8h222.8v37h-243.6v50.9h243.6v37h-243.6v50.9h243.6v37Z"/>
      <path class="st0" d="M3053.7,158.9c0,32-25.8,57.8-57.8,57.8h-222.8v-37h243.6v-50.9h-195.8c-32,0-57.8-25.8-57.8-57.8v-9.3c0-32,25.8-57.8,57.8-57.8h222.8v37h-243.6v50.9h195.8c32,0,57.8,25.8,57.8,57.8v9.3Z"/>
      <path class="st0" d="M3438,216.7h-37V25.1l-103.3,174.2c-7.3,12.3-20.4,20.8-35.8,20.8s-28.5-8.5-35.8-20.8l-102.9-174.2v191.6h-37V42.1c0-23.1,18.5-41.6,41.6-41.6s28.9,8.9,36.6,21.6l97.5,165.4,97.9-165.4c7.3-12.7,20.8-21.6,36.2-21.6,23.1,0,41.6,18.5,41.6,41.6l.4,174.6Z"/>
      <path class="st0" d="M3817,216.7h-46.6l-35.5-50.1h-193.5l-35.1,50.1h-46.6l139.2-194.7c8.9-12.3,22.7-21.6,39.3-21.6s30.5,9.2,39.3,21.6l139.6,194.7ZM3708.3,129.6l-70.2-100.6-70.2,100.6h140.3Z"/>
    </g>
    <g>
      <g>
        <polygon class="st1" points="94.6 320.5 450.5 320.5 450.5 263.3 131.2 263.2 94.6 320.5"/>
        <polygon class="st1" points="450.5 234.6 450.5 177.4 186.6 177.4 149.8 234.6 450.5 234.6"/>
        <polygon class="st1" points="450.5 148.7 450.5 91.5 241.6 91.5 205 148.7 450.5 148.7"/>
        <polygon class="st1" points="296.8 5.6 260.2 62.8 450.5 62.9 450.5 5.6 296.8 5.6"/>
      </g>
      <g>
        <path class="st1" d="M759.2,124.6h-24.1v-38.2h-180.9v38.2h-23.7V35.1c0-19.7,9.6-29.5,28.7-29.5h171.2c19.2,0,28.8,9.9,28.8,29.8v89.2ZM554.3,62.5h180.9v-23.7c0-6.3-3.2-9.5-9.6-9.5h-161.8c-6.4,0-9.5,3.2-9.5,9.7v23.4Z"/>
        <rect class="st1" x="778.7" y="5.6" width="24.3" height="119"/>
        <path class="st1" d="M1051.5,124.6h-29l-28.8-38.1h-147.2v38.1h-24.1l.3-119h200.3c18.9,0,28.3,9.4,28.3,28.1,0,0,.5,5.2,0,19.8-.5,14.6-17.2,30.4-28.7,32.9-11.3,2.5,0,0,0,0l29,38.2ZM1017,29.4h-170.6v33.4h167.4c8.9,0,13.7-8.6,13.7-14.5v-9.3c0-6.4-3.4-9.6-10.5-9.6"/>
        <path class="st1" d="M1662.1,124.6h-24.1v-38.3h-180.9v38.3h-23.7V35.1c0-19.7,9.6-29.5,28.7-29.5h171.2c19.2,0,28.8,9.9,28.8,29.8v89.2ZM1457.2,62.5h180.9v-23.7c0-6.3-3.2-9.5-9.6-9.5h-161.8c-6.3,0-9.5,3.2-9.5,9.7v23.4Z"/>
        <path class="st1" d="M1880,124.6h-199.1v-24.1h195.9c6,0,9-3.1,9.1-9.3v-14.3h-176.2c-19.2,0-28.8-9.7-28.8-29V5.6h23.9v38.5c0,6.2,3.3,9.3,9.8,9.3h171.2V5.4h23.9v89.9c0,19.5-9.9,29.3-29.8,29.3"/>
        <path class="st1" d="M2158,95.4c0,19.5-9.7,29.2-29.2,29.2h-199.7l.3-23.6h195.2c6.3,0,9.5-2.9,9.6-8.7v-5.8c.1-6.3-3.1-9.4-9.8-9.4h-166.5c-19.2,0-28.8-8.9-28.8-26.7v-15.7c0-19.2,9.4-28.8,28.3-28.8l200.6-.2v23.8h-195.5c-6.3,0-9.4,3.2-9.4,9.5v4.8c0,6.4,3.1,9.7,9.2,9.7h166.6c19.4,0,29.2,9.3,29.2,28.1v14Z"/>
        <path class="st1" d="M1255,100.7h123.2c7.8,0,11.7-3.1,11.7-9.2V5.6h23.7v89.9c0,19.5-9.3,29.2-27.8,29.2h-286.2c-19.5,0-29.3-9.7-29.3-29.2V5.6h24.6v85.6c0,6.4,3.1,9.5,9.2,9.5h125.2V5.7c0,0,25.6,0,25.6,0v95.1Z"/>
        <g>
          <path class="st0" d="M759.2,318.5h-24.1v-38.3h-180.9v38.3h-23.7v-89.6c0-19.7,9.6-29.5,28.7-29.5h171.2c19.2,0,28.8,9.9,28.8,29.8v89.3ZM554.3,256.3h180.9v-23.7c0-6.3-3.2-9.5-9.5-9.5h-161.8c-6.4,0-9.5,3.2-9.5,9.7v23.4Z"/>
          <polygon class="st0" points="996.8 199.2 896.6 295.3 796.2 199.4 763.2 199.4 880.4 318.5 912.9 318.5 1030.2 199.2 996.8 199.2"/>
          <rect class="st0" x="1041.7" y="199.2" width="24.3" height="119.1"/>
          <path class="st0" d="M1317.8,318.4h-24.1v-38.3h-180.9v38.3h-23.7v-89.6c0-19.7,9.6-29.5,28.7-29.5h171.2c19.2,0,28.8,10,28.8,29.8v89.3ZM1112.9,256.2h180.9v-23.7c0-6.3-3.2-9.4-9.6-9.4h-161.8c-6.3,0-9.5,3.2-9.5,9.7v23.4Z"/>
          <polygon class="st0" points="1340 199.4 1340 223.5 1459.4 223.5 1459.4 318.3 1488 318.3 1488 223.1 1607 223.1 1607 199.4 1340 199.4"/>
          <rect class="st0" x="1629.9" y="199.4" width="24.3" height="118.9"/>
          <path class="st0" d="M1705.7,318.4c-19.1,0-28.6-9.6-28.6-28.7v-61.8c0-19.1,9.5-28.6,28.3-28.6h171.5c19.4,0,29,9.8,29,29.3v61.7c0,18.5-9.4,27.8-28.1,27.8l-172.2.3ZM1882,285.2v-52c0-6.7-3.2-10-9.5-10h-161.8c-6.4,0-9.5,3.1-9.5,9.3v52.4c0,6.5,3.2,9.7,9.5,9.7h162c6.2,0,9.3-3.1,9.3-9.4"/>
          <polygon class="st0" points="2133.7 199.4 2133.8 290.2 1952.8 199.4 1928.8 199.4 1929.1 318.2 1953 318.2 1953 227.1 2133.6 318.3 2157.8 318.3 2157.8 199.4 2133.7 199.4"/>
        </g>
      </g>
    </g>
  </g>
</svg>