<?xml version="1.0" encoding="UTF-8"?>
<svg id="Layer_2" data-name="Layer 2" xmlns="http://www.w3.org/2000/svg" viewBox="0 0 3911.61 321.01">
  <defs>
    <style>
      .cls-1 {
        fill: #6f7277;
      }

      .cls-2 {
        fill: none;
        stroke: #666a70;
        stroke-miterlimit: 10;
        stroke-width: 8px;
      }

      .cls-3 {
        fill: #da291c;
      }

      .cls-4 {
        fill: #666a70;
      }
    </style>
  </defs>
  <g id="Layer_2-2" data-name="Layer 2">
    <g id="Layer_1-2" data-name="Layer 1-2">
      <g>
        <g>
          <path class="cls-3" d="M693.93,122.25h-24.7v-39.18h-185.4v39.18h-24.34V30.53c0-20.16,9.81-30.24,29.42-30.24h175.51c19.68,0,29.51,10.19,29.51,30.53v91.43ZM483.82,58.64h185.4v-24.26c0-6.45-3.28-9.69-9.8-9.69h-165.82c-6.52,0-9.78,3.33-9.78,9.99v23.96h0Z"/>
          <rect class="cls-3" x="713.86" y=".3" width="24.92" height="121.96"/>
          <path class="cls-3" d="M993.55,122.25h-29.74l-29.55-39.11h-150.92v39.11h-24.73l.31-121.96h205.31c19.35,0,29.02,9.61,29.02,28.81,0,0,.5,5.37,0,20.26-.5,14.97-17.67,31.11-29.45,33.72-11.6,2.55.03-.01,0,0l29.75,39.17h0ZM958.18,24.69h-174.84v34.24h171.56c9.09,0,14.01-8.85,14.01-14.88v-9.52c.08-6.58-3.51-9.84-10.73-9.84"/>
          <path class="cls-3" d="M1619.46,122.27h-24.7v-39.21h-185.4v39.21h-24.34V30.54c0-20.16,9.81-30.24,29.43-30.24h175.5c19.68,0,29.51,10.19,29.51,30.52v91.46h0ZM1409.36,58.64h185.4v-24.24c0-6.48-3.28-9.7-9.81-9.7h-165.82c-6.5,0-9.76,3.33-9.76,9.98v23.97h0Z"/>
          <path class="cls-3" d="M1842.85,122.3l-204.12-.12v-24.58h200.8c6.15,0,9.23-3.17,9.29-9.52v-14.66h-180.59c-19.68,0-29.49-9.92-29.49-29.71V.28h24.5v39.46c0,6.35,3.37,9.57,10.07,9.57h175.51V.12h24.54v92.14c0,20.02-10.18,30.04-30.5,30.04"/>
          <path class="cls-3" d="M2127.82,92.35c0,19.94-9.96,29.91-29.89,29.91h-204.73l.29-24.17h200.14c6.42,0,9.72-2.96,9.86-8.96v-5.94c.14-6.44-3.22-9.63-10.06-9.63h-170.66c-19.71,0-29.57-9.12-29.57-27.36v-16.14c0-19.7,9.64-29.57,29.01-29.57l205.62-.21v24.37h-200.43c-6.45,0-9.67,3.27-9.67,9.73v4.88c0,6.61,3.14,9.93,9.48,9.93h170.74c19.93,0,29.89,9.58,29.89,28.82v14.33h-.02Z"/>
          <path class="cls-3" d="M1202.18,97.8h126.26c8.01,0,12.02-3.17,12.02-9.46V.31h24.34v92.11c0,20-9.52,29.98-28.53,29.98h-293.38c-20,0-30-9.98-30-29.98V.29h25.22v87.75c0,6.51,3.16,9.76,9.46,9.76h128.32l-.09-97.45h26.38v97.45h0Z"/>
          <path class="cls-4" d="M693.93,321h-24.72v-39.29h-185.39v39.29h-24.34v-91.81c0-20.2,9.81-30.29,29.42-30.29h175.51c19.68,0,29.51,10.19,29.51,30.58v91.52h0ZM483.82,257.32h185.39v-24.29c0-6.48-3.27-9.69-9.76-9.69h-165.84c-6.52,0-9.78,3.31-9.78,9.98v24h-.01Z"/>
          <polygon class="cls-4" points="937.46 198.77 834.76 297.28 731.83 198.97 698.01 198.97 818.09 321.01 851.43 321.01 971.71 198.77 937.46 198.77"/>
          <rect class="cls-4" x="983.44" y="198.77" width="24.93" height="122.09"/>
          <path class="cls-1" d="M1266.55,320.9h-24.72v-39.29h-185.39v39.29h-24.34v-91.87c0-20.19,9.8-30.29,29.4-30.29h175.53c19.68,0,29.51,10.22,29.51,30.58v91.58h0ZM1056.45,257.18h185.39v-24.32c0-6.45-3.28-9.67-9.8-9.67h-165.82c-6.5,0-9.76,3.33-9.76,9.99v24h-.01Z"/>
          <polygon class="cls-4" points="1289.32 198.91 1289.32 223.64 1411.67 223.64 1411.67 320.79 1440.98 320.79 1440.98 223.26 1562.96 223.26 1562.96 198.91 1289.32 198.91"/>
          <rect class="cls-4" x="1586.42" y="198.91" width="24.92" height="121.9"/>
          <path class="cls-4" d="M1664.1,320.94c-19.55,0-29.3-9.81-29.3-29.4v-63.31c0-19.56,9.69-29.33,29.01-29.33h175.83c19.84,0,29.77,10.01,29.77,30v63.23c0,19-9.6,28.52-28.82,28.52l-176.49.29ZM1844.9,286.87v-53.3c0-6.82-3.27-10.22-9.76-10.22h-165.86c-6.53,0-9.78,3.16-9.78,9.54v53.71c0,6.62,3.25,9.93,9.78,9.93h166.04c6.38,0,9.58-3.22,9.58-9.66"/>
          <polygon class="cls-4" points="2102.88 198.91 2102.96 292.05 1917.41 198.91 1892.86 198.91 1893.16 320.78 1917.61 320.78 1917.61 227.32 2102.78 320.87 2127.53 320.87 2127.53 198.91 2102.88 198.91"/>
          <polygon class="cls-3" points="0 320.62 362.3 320.67 362.3 262.35 37.28 262.33 0 320.62"/>
          <polygon class="cls-3" points="362.3 233.21 362.3 174.91 93.64 174.89 56.18 233.19 362.3 233.21"/>
          <polygon class="cls-3" points="362.3 145.76 362.3 87.46 149.65 87.43 112.36 145.73 362.3 145.76"/>
          <polygon class="cls-3" points="205.82 0 168.54 58.3 362.3 58.32 362.3 0 205.82 0"/>
        </g>
        <line class="cls-2" x1="2350.53" y1="25.96" x2="2350.53" y2="295.04"/>
        <g>
          <path class="cls-4" d="M2811.17,180.18v78.14h-31.98V62.71h55.26c25.24,0,43.93,4.72,56.06,14.17,12.13,9.46,18.19,23.73,18.19,42.82,0,24.36-12.67,41.71-38,52.05l55.26,86.57h-36.39l-46.83-78.14h-31.58ZM2811.17,153.69h22.21c14.89,0,25.69-2.76,32.38-8.3,6.69-5.53,10.03-13.73,10.03-24.61s-3.61-19-10.84-23.82c-7.22-4.83-18.11-7.23-32.65-7.23h-21.14v63.96Z"/>
          <path class="cls-4" d="M3168.74,258.32l-19.53-54.32h-74.8l-19.13,54.32h-33.72l73.19-196.42h34.79l73.19,196.42h-33.99ZM3140.77,176.44l-18.33-53.25c-1.33-3.57-3.19-9.19-5.55-16.86-2.37-7.66-3.99-13.28-4.89-16.85-2.41,10.97-5.93,22.97-10.57,35.99l-17.66,50.98h57Z"/>
          <path class="cls-4" d="M3461.28,258.32h-39.2l-96.2-155.88h-1.07l.67,8.69c1.25,16.59,1.87,31.76,1.87,45.5v101.69h-29.03V62.71h38.8l95.93,155.07h.81c-.18-2.05-.53-9.52-1.07-22.41-.53-12.89-.8-22.95-.8-30.17V62.71h29.3v195.62Z"/>
          <path class="cls-4" d="M3649.72,87.32c-18.38,0-32.83,6.51-43.36,19.53-10.53,13.03-15.79,31.01-15.79,53.92s5.06,42.15,15.18,54.46c10.12,12.31,24.77,18.47,43.96,18.47,8.3,0,16.32-.82,24.08-2.47,7.76-1.65,15.83-3.77,24.22-6.35v27.43c-15.34,5.8-32.74,8.7-52.19,8.7-28.63,0-50.62-8.68-65.96-26.02-15.34-17.36-23.02-42.17-23.02-74.46,0-20.34,3.72-38.14,11.18-53.39,7.44-15.25,18.22-26.94,32.31-35.06,14.1-8.11,30.64-12.17,49.64-12.17,19.98,0,38.45,4.2,55.39,12.58l-11.51,26.62c-6.6-3.12-13.58-5.86-20.94-8.23-7.36-2.37-15.1-3.55-23.21-3.55Z"/>
          <path class="cls-4" d="M3911.61,258.32h-110.65V62.71h110.65v27.02h-78.68v53.25h73.72v26.77h-73.72v61.41h78.68v27.17Z"/>
          <path class="cls-4" d="M2604.94,258.32h-31.71V62.71h110.39v27.02h-78.68v61.16h73.72v27.16h-73.72v80.28Z"/>
        </g>
      </g>
    </g>
  </g>
</svg>