<?xml version="1.0" encoding="UTF-8"?>
<svg id="Layer_2" data-name="Layer 2" xmlns="http://www.w3.org/2000/svg" viewBox="0 0 681.18 510">
  <defs>
    <style>
      .cls-1 {
        fill: #da291c;
      }
    </style>
  </defs>
  <g id="Layer_2-2" data-name="Layer 2">
    <g>
      <g id="Layer_1-2" data-name="Layer 1-2">
        <g>
          <polygon class="cls-1" points="0 509.93 576.22 510 576.22 417.26 59.29 417.23 0 509.93"/>
          <polygon class="cls-1" points="576.23 370.91 576.23 278.18 148.93 278.15 89.35 370.88 576.23 370.91"/>
          <polygon class="cls-1" points="576.23 231.83 576.23 139.1 238.02 139.05 178.71 231.78 576.23 231.83"/>
          <polygon class="cls-1" points="327.34 0 268.06 92.72 576.23 92.74 576.23 .02 327.34 0"/>
        </g>
      </g>
      <g>
        <path class="cls-1" d="M650.38,419.33h29.77v12.18h-74.54v-21.06c0-9.62,1.8-16.74,5.4-21.36,3.61-4.62,9.04-6.93,16.32-6.93,9.28,0,15.89,4.83,19.83,14.48l32.99-21.06v13.87l-29.77,17.85v12.03ZM640.29,419.33v-8.46c0-5.67-1.05-9.79-3.16-12.34-2.11-2.55-5.23-3.82-9.38-3.82s-7.24,1.38-9.08,4.13c-1.84,2.75-2.76,6.9-2.76,12.44v8.06h24.37Z"/>
        <path class="cls-1" d="M680.16,283.08l-20.7,7.44v28.5l20.7,7.29v12.85l-74.85-27.89v-13.26l74.85-27.89v12.95ZM648.95,293.73l-20.29,6.98c-1.36.51-3.5,1.21-6.43,2.11-2.92.9-5.06,1.52-6.42,1.86,4.18.92,8.75,2.26,13.71,4.03l19.43,6.73v-21.72Z"/>
        <path class="cls-1" d="M680.16,171.6v14.94l-59.4,36.66v.41l3.31-.26c6.32-.47,12.1-.71,17.34-.71h38.75v11.06h-74.54v-14.79l59.09-36.56v-.31c-.78.07-3.63.2-8.54.41-4.91.2-8.74.31-11.5.31h-39.05v-11.17h74.54Z"/>
        <path class="cls-1" d="M615,99.8c0,7,2.48,12.51,7.44,16.52,4.97,4.01,11.82,6.02,20.55,6.02s16.06-1.93,20.75-5.79,7.04-9.44,7.04-16.75c0-3.16-.31-6.22-.94-9.18s-1.44-6.03-2.42-9.23h10.45c2.21,5.85,3.31,12.48,3.31,19.89,0,10.91-3.31,19.29-9.92,25.14-6.61,5.85-16.07,8.77-28.37,8.77-7.75,0-14.53-1.42-20.34-4.26-5.81-2.84-10.26-6.94-13.36-12.31-3.09-5.37-4.64-11.68-4.64-18.92,0-7.61,1.6-14.65,4.79-21.11l10.14,4.39c-1.19,2.52-2.23,5.17-3.14,7.98-.9,2.8-1.35,5.75-1.35,8.85Z"/>
        <path class="cls-1" d="M680.16,0v42.16h-74.54V0h10.3v29.98h20.29V1.89h10.2v28.09h23.4V0h10.35Z"/>
        <path class="cls-1" d="M680.16,497.92v12.08h-74.54v-42.06h10.3v29.98h23.3v-28.09h10.35v28.09h30.59Z"/>
      </g>
    </g>
  </g>
</svg>