<?xml version="1.0" encoding="UTF-8"?>
<svg id="Layer_2" data-name="Layer 2" xmlns="http://www.w3.org/2000/svg" viewBox="0 0 678.28 510">
  <defs>
    <style>
      .cls-1 {
        fill: #da291c;
      }
    </style>
  </defs>
  <g id="Layer_1-2" data-name="Layer 1">
    <g>
      <g>
        <polygon class="cls-1" points="0 509.93 576.13 510 576.13 417.27 59.28 417.24 0 509.93"/>
        <polygon class="cls-1" points="576.14 370.93 576.14 278.22 148.91 278.19 89.34 370.9 576.14 370.93"/>
        <polygon class="cls-1" points="576.14 231.87 576.14 139.16 237.98 139.11 178.68 231.82 576.14 231.87"/>
        <polygon class="cls-1" points="327.29 .08 268.02 92.79 576.14 92.81 576.14 .1 327.29 .08"/>
      </g>
      <g>
        <path class="cls-1" d="M629.83,462.31c7.43,0,13.11,2.32,17.05,6.96,3.93,4.64,5.9,11.25,5.9,19.81v6.28h24.55v14.64h-69.03v-22.05c0-8.37,1.8-14.74,5.41-19.1,3.61-4.36,8.98-6.54,16.12-6.54ZM640.79,495.36v-4.82c0-4.5-.89-7.87-2.67-10.1s-4.37-3.35-7.77-3.35-5.96.94-7.6,2.81c-1.64,1.87-2.45,4.81-2.45,8.81v6.66h20.49Z"/>
        <path class="cls-1" d="M642.72,386.62c11.43,0,20.21,2.83,26.35,8.5,6.14,5.66,9.21,13.79,9.21,24.37s-3.07,18.7-9.21,24.36c-6.14,5.67-14.95,8.5-26.44,8.5s-20.26-2.84-26.32-8.52c-6.06-5.68-9.09-13.83-9.09-24.44s3.05-18.72,9.16-24.34c6.11-5.62,14.89-8.43,26.35-8.43ZM642.72,437c7.71,0,13.52-1.46,17.42-4.39,3.9-2.93,5.85-7.3,5.85-13.13,0-11.68-7.76-17.52-23.28-17.52s-23.33,5.81-23.33,17.42c0,5.82,1.96,10.22,5.88,13.17,3.92,2.96,9.74,4.44,17.45,4.44Z"/>
        <path class="cls-1" d="M650.85,357.68h26.49v14.64h-69.03v-20.12c0-9.38,1.71-16.32,5.12-20.82,3.42-4.5,8.6-6.75,15.56-6.75,4.06,0,7.67,1.12,10.83,3.35,3.16,2.24,5.64,5.4,7.44,9.49,15.52-10.39,25.54-17.16,30.08-20.3v16.24l-26.49,16.48v7.79ZM638.95,357.68v-4.72c0-4.63-.77-8.04-2.31-10.25-1.54-2.2-3.97-3.31-7.27-3.31s-5.6,1.13-6.99,3.38c-1.38,2.25-2.08,5.74-2.08,10.46v4.44h18.65Z"/>
        <path class="cls-1" d="M677.33,281.84v14.64h-56.85v18.75h-12.18v-52.13h12.18v18.75h56.85Z"/>
        <path class="cls-1" d="M608.3,196.28h44.67c5.1,0,9.57,1.14,13.41,3.42,3.84,2.28,6.78,5.58,8.83,9.89,2.05,4.31,3.07,9.41,3.07,15.3,0,8.88-2.27,15.77-6.82,20.68-4.55,4.91-10.77,7.37-18.67,7.37h-44.48v-14.59h42.26c5.32,0,9.22-1.07,11.71-3.21,2.49-2.14,3.73-5.68,3.73-10.62s-1.25-8.26-3.75-10.41c-2.5-2.16-6.43-3.23-11.78-3.23h-42.17v-14.59Z"/>
        <path class="cls-1" d="M638.57,153.18v-27.39h35.79c1.45,4.44,2.46,8.62,3.05,12.54.58,3.92.87,7.93.87,12.02,0,10.42-3.06,18.38-9.18,23.87-6.12,5.49-14.91,8.24-26.37,8.24s-19.83-3.19-26.06-9.56c-6.23-6.37-9.35-15.21-9.35-26.51,0-7.08,1.42-13.91,4.25-20.49l11.71,4.86c-2.52,5.04-3.78,10.28-3.78,15.72,0,6.33,2.13,11.4,6.37,15.2,4.25,3.81,9.96,5.71,17.14,5.71s13.21-1.53,17.16-4.6c3.95-3.07,5.93-7.53,5.93-13.39,0-3.05-.31-6.15-.94-9.3h-14.4v13.08h-12.18Z"/>
        <path class="cls-1" d="M677.33,67.1l-16.43,5.01v25.17l16.43,5.01v15.77l-69.32-24.36v-17.9l69.32-24.46v15.77ZM648.63,75.6c-14.89,4.63-23.31,7.23-25.26,7.82-1.95.58-3.49,1-4.63,1.25,4.03,1.04,13.99,4.01,29.89,8.92v-17.99Z"/>
        <path class="cls-1" d="M677.33,42.64h-69.03v-14.64h56.95V0h12.09v42.64Z"/>
      </g>
    </g>
  </g>
</svg>